<svg width="12" height="13" viewBox="0 0 12 13" fill="none" xmlns="http://www.w3.org/2000/svg">
<path fill-rule="evenodd" clip-rule="evenodd" d="M2.09039 6.08392C2.11896 6.05732 2.15291 6.03621 2.19029 6.02181C2.22767 6.00741 2.26774 6 2.30821 6C2.34867 6 2.38874 6.00741 2.42612 6.02181C2.4635 6.03621 2.49745 6.05732 2.52603 6.08392L6.00008 9.30995L9.47413 6.08392C9.50274 6.05736 9.5367 6.03629 9.57407 6.02192C9.61145 6.00755 9.6515 6.00015 9.69196 6.00015C9.73241 6.00015 9.77247 6.00755 9.80984 6.02192C9.84721 6.03629 9.88117 6.05736 9.90978 6.08392C9.93838 6.11048 9.96107 6.142 9.97655 6.1767C9.99203 6.2114 10 6.24859 10 6.28615C10 6.32371 9.99203 6.3609 9.97655 6.3956C9.96107 6.4303 9.93838 6.46183 9.90978 6.48839L6.2179 9.91608C6.18932 9.94268 6.15537 9.96379 6.118 9.97819C6.08062 9.99259 6.04055 10 6.00008 10C5.95961 10 5.91954 9.99259 5.88217 9.97819C5.84479 9.96379 5.81084 9.94268 5.78226 9.91608L2.09039 6.48839C2.06173 6.46185 2.039 6.43033 2.02349 6.39563C2.00798 6.36093 2 6.32372 2 6.28615C2 6.24858 2.00798 6.21138 2.02349 6.17667C2.039 6.14197 2.06173 6.11045 2.09039 6.08392Z" fill="#003154"/>
<path fill-rule="evenodd" clip-rule="evenodd" d="M2.09039 6.08392C2.11896 6.05732 2.15291 6.03621 2.19029 6.02181C2.22767 6.00741 2.26774 6 2.30821 6C2.34867 6 2.38874 6.00741 2.42612 6.02181C2.4635 6.03621 2.49745 6.05732 2.52603 6.08392L6.00008 9.30995L9.47413 6.08392C9.50274 6.05736 9.5367 6.03629 9.57407 6.02192C9.61145 6.00755 9.6515 6.00015 9.69196 6.00015C9.73241 6.00015 9.77247 6.00755 9.80984 6.02192C9.84721 6.03629 9.88117 6.05736 9.90978 6.08392C9.93838 6.11048 9.96107 6.142 9.97655 6.1767C9.99203 6.2114 10 6.24859 10 6.28615C10 6.32371 9.99203 6.3609 9.97655 6.3956C9.96107 6.4303 9.93838 6.46183 9.90978 6.48839L6.2179 9.91608C6.18932 9.94268 6.15537 9.96379 6.118 9.97819C6.08062 9.99259 6.04055 10 6.00008 10C5.95961 10 5.91954 9.99259 5.88217 9.97819C5.84479 9.96379 5.81084 9.94268 5.78226 9.91608L2.09039 6.48839C2.06173 6.46185 2.039 6.43033 2.02349 6.39563C2.00798 6.36093 2 6.32372 2 6.28615C2 6.24858 2.00798 6.21138 2.02349 6.17667C2.039 6.14197 2.06173 6.11045 2.09039 6.08392Z" fill="#003154"/>
<path d="M2.09039 6.08392C2.11896 6.05732 2.15291 6.03621 2.19029 6.02181C2.22767 6.00741 2.26774 6 2.30821 6C2.34867 6 2.38874 6.00741 2.42612 6.02181C2.4635 6.03621 2.49745 6.05732 2.52603 6.08392L6.00008 9.30995L9.47413 6.08392C9.50274 6.05736 9.5367 6.03629 9.57407 6.02192C9.61145 6.00755 9.6515 6.00015 9.69196 6.00015C9.73241 6.00015 9.77247 6.00755 9.80984 6.02192C9.84721 6.03629 9.88117 6.05736 9.90978 6.08392C9.93838 6.11048 9.96107 6.142 9.97655 6.1767C9.99203 6.2114 10 6.24859 10 6.28615C10 6.32371 9.99203 6.3609 9.97655 6.3956C9.96107 6.4303 9.93838 6.46183 9.90978 6.48839L6.2179 9.91608C6.18932 9.94268 6.15537 9.96379 6.118 9.97819C6.08062 9.99259 6.04055 10 6.00008 10C5.95961 10 5.91954 9.99259 5.88217 9.97819C5.84479 9.96379 5.81084 9.94268 5.78226 9.91608L2.09039 6.48839C2.06173 6.46185 2.039 6.43033 2.02349 6.39563C2.00798 6.36093 2 6.32372 2 6.28615C2 6.24858 2.00798 6.21138 2.02349 6.17667C2.039 6.14197 2.06173 6.11045 2.09039 6.08392Z" stroke="#003154" stroke-width="0.5"/>
</svg>
