<svg width="5" height="10" viewBox="0 0 5 10" fill="none" xmlns="http://www.w3.org/2000/svg">
<path fill-rule="evenodd" clip-rule="evenodd" d="M0.583918 8.90961C0.557317 8.88104 0.536212 8.84709 0.521812 8.80971C0.507412 8.77233 0.5 8.73226 0.5 8.69179C0.5 8.65133 0.507412 8.61126 0.521812 8.57388C0.536212 8.5365 0.557317 8.50255 0.583918 8.47397L3.80995 4.99992L0.583917 1.52587C0.55736 1.49726 0.536293 1.4633 0.52192 1.42593C0.507547 1.38855 0.500149 1.3485 0.500149 1.30804C0.500149 1.26759 0.507547 1.22753 0.52192 1.19016C0.536293 1.15279 0.55736 1.11883 0.583917 1.09022C0.610475 1.06162 0.642004 1.03893 0.676703 1.02345C0.711402 1.00797 0.748593 1 0.786152 1C0.82371 1 0.860901 1.00797 0.8956 1.02345C0.930299 1.03893 0.961828 1.06162 0.988386 1.09022L4.41608 4.7821C4.44268 4.81068 4.46379 4.84463 4.47819 4.882C4.49259 4.91938 4.5 4.95945 4.5 4.99992C4.5 5.04039 4.49259 5.08046 4.47819 5.11783C4.46379 5.15521 4.44268 5.18916 4.41608 5.21774L0.988386 8.90961C0.961852 8.93827 0.930332 8.961 0.895629 8.97651C0.860926 8.99202 0.823724 9 0.786152 9C0.74858 9 0.711377 8.99202 0.676675 8.97651C0.641972 8.961 0.610451 8.93827 0.583918 8.90961Z" fill="#003154"/>
<path fill-rule="evenodd" clip-rule="evenodd" d="M0.583918 8.90961C0.557317 8.88104 0.536212 8.84709 0.521812 8.80971C0.507412 8.77233 0.5 8.73226 0.5 8.69179C0.5 8.65133 0.507412 8.61126 0.521812 8.57388C0.536212 8.5365 0.557317 8.50255 0.583918 8.47397L3.80995 4.99992L0.583917 1.52587C0.55736 1.49726 0.536293 1.4633 0.52192 1.42593C0.507547 1.38855 0.500149 1.3485 0.500149 1.30804C0.500149 1.26759 0.507547 1.22753 0.52192 1.19016C0.536293 1.15279 0.55736 1.11883 0.583917 1.09022C0.610475 1.06162 0.642004 1.03893 0.676703 1.02345C0.711402 1.00797 0.748593 1 0.786152 1C0.82371 1 0.860901 1.00797 0.8956 1.02345C0.930299 1.03893 0.961828 1.06162 0.988386 1.09022L4.41608 4.7821C4.44268 4.81068 4.46379 4.84463 4.47819 4.882C4.49259 4.91938 4.5 4.95945 4.5 4.99992C4.5 5.04039 4.49259 5.08046 4.47819 5.11783C4.46379 5.15521 4.44268 5.18916 4.41608 5.21774L0.988386 8.90961C0.961852 8.93827 0.930332 8.961 0.895629 8.97651C0.860926 8.99202 0.823724 9 0.786152 9C0.74858 9 0.711377 8.99202 0.676675 8.97651C0.641972 8.961 0.610451 8.93827 0.583918 8.90961Z" fill="#003154"/>
<path d="M0.583918 8.90961C0.557317 8.88104 0.536212 8.84709 0.521812 8.80971C0.507412 8.77233 0.5 8.73226 0.5 8.69179C0.5 8.65133 0.507412 8.61126 0.521812 8.57388C0.536212 8.5365 0.557317 8.50255 0.583918 8.47397L3.80995 4.99992L0.583917 1.52587C0.55736 1.49726 0.536293 1.4633 0.52192 1.42593C0.507547 1.38855 0.500149 1.3485 0.500149 1.30804C0.500149 1.26759 0.507547 1.22753 0.52192 1.19016C0.536293 1.15279 0.55736 1.11883 0.583917 1.09022C0.610475 1.06162 0.642004 1.03893 0.676703 1.02345C0.711402 1.00797 0.748593 1 0.786152 1C0.82371 1 0.860901 1.00797 0.8956 1.02345C0.930299 1.03893 0.961828 1.06162 0.988386 1.09022L4.41608 4.7821C4.44268 4.81068 4.46379 4.84463 4.47819 4.882C4.49259 4.91938 4.5 4.95945 4.5 4.99992C4.5 5.04039 4.49259 5.08046 4.47819 5.11783C4.46379 5.15521 4.44268 5.18916 4.41608 5.21774L0.988386 8.90961C0.961852 8.93827 0.930332 8.961 0.895629 8.97651C0.860926 8.99202 0.823724 9 0.786152 9C0.74858 9 0.711377 8.99202 0.676675 8.97651C0.641972 8.961 0.610451 8.93827 0.583918 8.90961Z" stroke="#003154" stroke-width="0.5"/>
</svg>
